# xmcd
#
# Track frame offsets: 
#        150
#        25740
#        48298
#        69830
#        91569
#        105869
#        120187
#        134514
#        157126
#        179847
#        202549
#        215488
#        228771
#        243026
#        257278
#        271660
#        289409
#
# Disc length: 4109 seconds
#
# Revision: 0
# Processed by: cddbd v1.5.2PL0 Copyright (c) Steve Scherf et al.
# Submitted via: ExactAudioCopy v0.95b3
#
DISCID=d1100b11
DTITLE=Paul McCartney    - Complete Cold Cuts (Bell Bottom 030)
DYEAR=1900
DGENRE=
TTITLE0=Waterspout
TTITLE1=Waterspout
TTITLE2=Waterspout
TTITLE3=Waterspout
TTITLE4=Same time next year
TTITLE5=Same time next year
TTITLE6=Same time next year
TTITLE7=Did we meet somewhere before
TTITLE8=Did we meet somewhere before
TTITLE9=Did we meet somewhere before
TTITLE10=Cage
TTITLE11=Cage
TTITLE12=Cage
TTITLE13=Cage
TTITLE14=Cage
TTITLE15=Robber's ball
TTITLE16=Robber's ball
EXTD=
EXTT0=
EXTT1=
EXTT2=
EXTT3=
EXTT4=
EXTT5=
EXTT6=
EXTT7=
EXTT8=
EXTT9=
EXTT10=
EXTT11=
EXTT12=
EXTT13=
EXTT14=
EXTT15=
EXTT16=
PLAYORDER=
